<?xml version="1.0" encoding="iso-8859-1"?>
<!-- Uploaded to: SVG Repo, www.svgrepo.com, Generator: SVG Repo Mixer Tools -->
<svg height="800px" width="800px" version="1.1" id="Layer_1" xmlns="http://www.w3.org/2000/svg" xmlns:xlink="http://www.w3.org/1999/xlink" 
	 viewBox="0 0 512 512" xml:space="preserve">
<path style="fill:#FFD764;" d="M256,8.17v206.979c30.077,0,54.468-46.331,54.468-103.489S286.077,8.17,256,8.17z"/>
<g>
	<path style="fill:#FFE29E;" d="M256,8.17c12.037,0,21.787,46.331,21.787,103.489S268.037,215.149,256,215.149
		c-30.077,0-54.468-46.331-54.468-103.489S225.923,8.17,256,8.17z"/>
	<path style="fill:#FFE29E;" d="M80.758,80.758l146.356,146.356c21.268-21.268,5.754-71.276-34.663-111.692
		C152.034,75.004,102.025,59.49,80.758,80.758z"/>
</g>
<path style="fill:#FFF1CF;" d="M80.758,80.758c8.512-8.512,48.166,17.355,88.584,57.772s66.284,80.072,57.772,88.584
	c-21.268,21.268-71.276,5.754-111.692-34.663S59.49,102.025,80.758,80.758z"/>
<path style="fill:#FFD764;" d="M8.17,256h206.979c0-30.077-46.331-54.468-103.489-54.468S8.17,225.923,8.17,256z"/>
<path style="fill:#FFE29E;" d="M8.17,256c0-12.037,46.331-21.787,103.489-21.787s103.489,9.75,103.489,21.787
	c0,30.077-46.331,54.468-103.489,54.468S8.17,286.077,8.17,256z"/>
<path style="fill:#FFD764;" d="M80.758,431.242l146.356-146.356c-21.268-21.268-71.276-5.754-111.692,34.663
	C75.004,359.966,59.49,409.975,80.758,431.242z"/>
<g>
	<path style="fill:#FFE29E;" d="M80.758,431.242c-8.512-8.512,17.355-48.166,57.772-88.584s80.072-66.284,88.584-57.772
		c21.268,21.268,5.754,71.276-34.663,111.692S102.025,452.51,80.758,431.242z"/>
	<path style="fill:#FFE29E;" d="M256,503.83V296.851c-30.077,0-54.468,46.331-54.468,103.489S225.923,503.83,256,503.83z"/>
</g>
<path style="fill:#FFF1CF;" d="M256,503.83c-12.037,0-21.787-46.331-21.787-103.489s9.75-103.489,21.787-103.489
	c30.077,0,54.468,46.331,54.468,103.489S286.077,503.83,256,503.83z"/>
<path style="fill:#FFD764;" d="M431.242,431.242L284.887,284.887c-21.268,21.268-5.754,71.276,34.663,111.692
	C359.967,436.996,409.975,452.51,431.242,431.242z"/>
<g>
	<path style="fill:#FFE29E;" d="M431.242,431.242c-8.512,8.512-48.166-17.355-88.584-57.772s-66.284-80.072-57.772-88.584
		c21.268-21.268,71.276-5.754,111.692,34.663S452.51,409.975,431.242,431.242z"/>
	<path style="fill:#FFE29E;" d="M503.83,256H296.851c0,30.077,46.331,54.468,103.489,54.468S503.83,286.077,503.83,256z"/>
</g>
<path style="fill:#FFF1CF;" d="M503.83,256c0,12.037-46.331,21.787-103.489,21.787S296.851,268.037,296.851,256
	c0-30.077,46.331-54.468,103.489-54.468S503.83,225.923,503.83,256z"/>
<path style="fill:#FFD764;" d="M431.242,80.758L284.887,227.113c21.268,21.268,71.276,5.754,111.692-34.663
	C436.996,152.033,452.51,102.025,431.242,80.758z"/>
<path style="fill:#FFE29E;" d="M431.242,80.758c8.512,8.512-17.355,48.166-57.772,88.584s-80.072,66.284-88.584,57.772
	c-21.268-21.268-5.754-71.276,34.664-111.692S409.975,59.49,431.242,80.758z"/>
<g>
	<circle style="fill:#FFF1CF;" cx="130.723" cy="392.17" r="8.17"/>
	<circle style="fill:#FFF1CF;" cx="234.213" cy="95.733" r="8.17"/>
	<circle style="fill:#FFF1CF;" cx="245.106" cy="63.054" r="8.17"/>
</g>
<path style="fill:#FF973E;" d="M256,179.745v152.511c42.115,0,76.255-34.141,76.255-76.255S298.115,179.745,256,179.745z"/>
<path style="fill:#FFB751;" d="M256,179.745c24.064,0,43.574,34.141,43.574,76.255s-19.51,76.255-43.574,76.255
	c-42.115,0-76.255-34.141-76.255-76.255S213.885,179.745,256,179.745z"/>
<g>
	<circle style="fill:#FF973E;" cx="277.787" cy="258.723" r="8.17"/>
	<circle style="fill:#FF973E;" cx="256" cy="236.936" r="8.17"/>
</g>
<path d="M326.042,303.085c20.214,9.933,46.766,15.553,74.299,15.553C462.954,318.638,512,291.124,512,256
	c0-33.877-45.627-60.67-105.044-62.532c40.695-43.329,54.017-94.535,30.063-118.489c-20.012-20.01-59.883-14.338-99.217,14.118
	c-3.656,2.645-4.475,7.752-1.831,11.409c2.645,3.656,7.752,4.476,11.409,1.83c31.565-22.836,64.403-29.482,78.084-15.801
	c17.746,17.745,1.871,63.603-34.664,100.138c-17.588,17.587-37.854,30.914-56.651,37.433c-6.381-15.578-17.275-28.847-31.065-38.148
	c9.933-20.214,15.553-46.766,15.553-74.299C318.638,49.046,291.124,0,256,0c-33.877,0-60.671,45.627-62.532,105.044
	C150.141,64.35,98.936,51.028,74.981,74.981c-20.012,20.01-14.338,59.883,14.116,99.216c2.645,3.657,7.753,4.477,11.409,1.831
	c3.656-2.645,4.475-7.752,1.831-11.408c-22.835-31.566-29.48-64.405-15.801-78.085c17.748-17.746,63.605-1.872,100.138,34.663
	c17.587,17.587,30.914,37.854,37.432,56.65c-15.578,6.381-28.847,17.275-38.147,31.065c-20.215-9.933-46.766-15.553-74.298-15.553
	C49.046,193.362,0,220.876,0,256c0,33.877,45.627,60.67,105.044,62.532c-40.695,43.329-54.017,94.535-30.063,118.489
	c7.975,7.975,19.104,11.871,32.098,11.87c19.609,0,43.462-8.874,67.119-25.988c3.656-2.645,4.475-7.752,1.831-11.409
	c-2.645-3.655-7.753-4.476-11.409-1.83c-31.565,22.836-64.403,29.482-78.084,15.801c-17.746-17.745-1.872-63.603,34.663-100.138
	c17.588-17.587,37.854-30.914,56.651-37.433c6.381,15.578,17.275,28.847,31.065,38.148c-9.933,20.214-15.553,46.766-15.553,74.299
	c0,62.613,27.514,111.66,62.638,111.66c33.877,0,60.67-45.626,62.532-105.042c28.754,27.006,60.973,41.96,86.399,41.96
	c12.887,0,24.032-3.841,32.089-11.898c20.012-20.012,14.338-59.884-14.116-99.217c-2.645-3.657-7.753-4.475-11.409-1.832
	c-3.656,2.646-4.475,7.753-1.831,11.409c22.835,31.566,29.48,64.405,15.801,78.085c-17.748,17.747-63.603,1.873-100.138-34.664
	c-17.587-17.587-30.915-37.854-37.433-56.65C303.472,327.769,316.742,316.876,326.042,303.085z M389.47,210.041
	c3.597-0.206,7.233-0.339,10.871-0.339c51.668,0,95.319,21.202,95.319,46.298s-43.651,46.298-95.319,46.298
	c-24.866,0-48.615-4.904-66.514-13.583c4.247-10.067,6.599-21.121,6.599-32.715c0-5.556-0.555-10.982-1.584-16.24
	C355.598,234.043,373.234,223.678,389.47,210.041z M210.041,122.53c-0.206-3.601-0.339-7.239-0.339-10.871
	c0-51.668,21.201-95.319,46.298-95.319s46.298,43.651,46.298,95.319c0,24.865-4.904,48.615-13.583,66.514
	c-10.067-4.247-21.121-6.599-32.715-6.599c-5.556,0-10.982,0.554-16.24,1.584C234.043,156.403,223.678,138.767,210.041,122.53z
	 M122.53,301.959c-3.597,0.206-7.233,0.339-10.871,0.339c-51.668,0-95.319-21.202-95.319-46.298
	c0-25.096,43.651-46.298,95.319-46.298c24.865,0,48.615,4.904,66.514,13.583c-4.247,10.067-6.599,21.121-6.599,32.715
	c0,5.556,0.554,10.982,1.584,16.24C156.402,277.957,138.766,288.322,122.53,301.959z M301.959,389.469
	c0.207,3.601,0.339,7.239,0.339,10.872c0,51.668-21.201,95.319-46.298,95.319s-46.298-43.651-46.298-95.319
	c0-24.865,4.904-48.615,13.583-66.514c10.067,4.247,21.121,6.599,32.715,6.599c5.555,0,10.982-0.555,16.24-1.584
	C277.958,355.597,288.322,373.233,301.959,389.469z M256,324.085c-37.542,0-68.085-30.542-68.085-68.085
	s30.544-68.085,68.085-68.085s68.085,30.542,68.085,68.085S293.542,324.085,256,324.085z"/>
</svg>