<?xml version="1.0" encoding="UTF-8"?>
<svg width="700pt" height="700pt" version="1.1" viewBox="0 0 700 700" xmlns="http://www.w3.org/2000/svg" xmlns:xlink="http://www.w3.org/1999/xlink">
 <defs>
  <symbol id="u" fill="#ccc" overflow="visible">
   <path d="m18.766-1.125c-0.96875 0.5-1.9805 0.875-3.0312 1.125-1.043 0.25781-2.1367 0.39062-3.2812 0.39062-3.3984 0-6.0898-0.94531-8.0781-2.8438-1.9922-1.9062-2.9844-4.4844-2.9844-7.7344 0-3.2578 0.99219-5.8359 2.9844-7.7344 1.9883-1.9062 4.6797-2.8594 8.0781-2.8594 1.1445 0 2.2383 0.13281 3.2812 0.39062 1.0508 0.25 2.0625 0.625 3.0312 1.125v4.2188c-0.98047-0.65625-1.9453-1.1406-2.8906-1.4531-0.94922-0.3125-1.9492-0.46875-3-0.46875-1.875 0-3.3516 0.60547-4.4219 1.8125-1.0742 1.1992-1.6094 2.8555-1.6094 4.9688 0 2.1055 0.53516 3.7617 1.6094 4.9688 1.0703 1.1992 2.5469 1.7969 4.4219 1.7969 1.0508 0 2.0508-0.14844 3-0.45312 0.94531-0.3125 1.9102-0.80078 2.8906-1.4688z"/>
  </symbol>
  <symbol id="d" overflow="visible">
   <path d="m13.734-11.141c-0.4375-0.19531-0.87109-0.34375-1.2969-0.4375-0.41797-0.10156-0.83984-0.15625-1.2656-0.15625-1.2617 0-2.2305 0.40625-2.9062 1.2188-0.67969 0.80469-1.0156 1.9531-1.0156 3.4531v7.0625h-4.8906v-15.312h4.8906v2.5156c0.625-1 1.3438-1.7266 2.1562-2.1875 0.82031-0.46875 1.8008-0.70312 2.9375-0.70312 0.16406 0 0.34375 0.011719 0.53125 0.03125 0.19531 0.011719 0.47656 0.039062 0.84375 0.078125z"/>
  </symbol>
  <symbol id="a" overflow="visible">
   <path d="m17.641-7.7031v1.4062h-11.453c0.125 1.1484 0.53906 2.0078 1.25 2.5781 0.70703 0.57422 1.7031 0.85938 2.9844 0.85938 1.0312 0 2.082-0.14844 3.1562-0.45312 1.082-0.3125 2.1914-0.77344 3.3281-1.3906v3.7656c-1.1562 0.4375-2.3125 0.76562-3.4688 0.98438-1.1562 0.22656-2.3125 0.34375-3.4688 0.34375-2.7734 0-4.9297-0.70312-6.4688-2.1094-1.5312-1.4062-2.2969-3.3789-2.2969-5.9219 0-2.5 0.75391-4.4609 2.2656-5.8906 1.5078-1.4375 3.582-2.1562 6.2188-2.1562 2.4062 0 4.332 0.73047 5.7812 2.1875 1.4453 1.4492 2.1719 3.3828 2.1719 5.7969zm-5.0312-1.625c0-0.92578-0.27344-1.6719-0.8125-2.2344-0.54297-0.57031-1.25-0.85938-2.125-0.85938-0.94922 0-1.7188 0.26562-2.3125 0.79688s-0.96484 1.2969-1.1094 2.2969z"/>
  </symbol>
  <symbol id="c" overflow="visible">
   <path d="m9.2188-6.8906c-1.0234 0-1.793 0.17188-2.3125 0.51562-0.51172 0.34375-0.76562 0.85547-0.76562 1.5312 0 0.625 0.20703 1.1172 0.625 1.4688 0.41406 0.34375 0.98828 0.51562 1.7188 0.51562 0.92578 0 1.7031-0.32812 2.3281-0.98438 0.63281-0.66406 0.95312-1.4922 0.95312-2.4844v-0.5625zm7.4688-1.8438v8.7344h-4.9219v-2.2656c-0.65625 0.92969-1.3984 1.6055-2.2188 2.0312-0.82422 0.41406-1.8242 0.625-3 0.625-1.5859 0-2.8711-0.45703-3.8594-1.375-0.99219-0.92578-1.4844-2.1289-1.4844-3.6094 0-1.7891 0.61328-3.1016 1.8438-3.9375 1.2383-0.84375 3.1797-1.2656 5.8281-1.2656h2.8906v-0.39062c0-0.76953-0.30859-1.332-0.92188-1.6875-0.61719-0.36328-1.5703-0.54688-2.8594-0.54688-1.0547 0-2.0312 0.10547-2.9375 0.3125-0.89844 0.21094-1.7305 0.52344-2.5 0.9375v-3.7344c1.0391-0.25 2.0859-0.44141 3.1406-0.57812 1.0625-0.13281 2.125-0.20312 3.1875-0.20312 2.7578 0 4.75 0.54688 5.9688 1.6406 1.2266 1.0859 1.8438 2.8555 1.8438 5.3125z"/>
  </symbol>
  <symbol id="b" overflow="visible">
   <path d="m7.7031-19.656v4.3438h5.0469v3.5h-5.0469v6.5c0 0.71094 0.14062 1.1875 0.42188 1.4375s0.83594 0.375 1.6719 0.375h2.5156v3.5h-4.1875c-1.9375 0-3.3125-0.39844-4.125-1.2031-0.80469-0.8125-1.2031-2.1797-1.2031-4.1094v-6.5h-2.4219v-3.5h2.4219v-4.3438z"/>
  </symbol>
  <symbol id="j" overflow="visible">
   <path d="m12.766-13.078v-8.2031h4.9219v21.281h-4.9219v-2.2188c-0.66797 0.90625-1.4062 1.5703-2.2188 1.9844s-1.7578 0.625-2.8281 0.625c-1.8867 0-3.4336-0.75-4.6406-2.25-1.2109-1.5-1.8125-3.4258-1.8125-5.7812 0-2.3633 0.60156-4.2969 1.8125-5.7969 1.207-1.5 2.7539-2.25 4.6406-2.25 1.0625 0 2 0.21484 2.8125 0.64062 0.82031 0.42969 1.5664 1.0859 2.2344 1.9688zm-3.2188 9.9219c1.0391 0 1.8359-0.37891 2.3906-1.1406 0.55078-0.76953 0.82812-1.8828 0.82812-3.3438 0-1.457-0.27734-2.5664-0.82812-3.3281-0.55469-0.76953-1.3516-1.1562-2.3906-1.1562-1.043 0-1.8398 0.38672-2.3906 1.1562-0.55469 0.76172-0.82812 1.8711-0.82812 3.3281 0 1.4609 0.27344 2.5742 0.82812 3.3438 0.55078 0.76172 1.3477 1.1406 2.3906 1.1406z"/>
  </symbol>
  <symbol id="i" overflow="visible">
   <path d="m10.5-3.1562c1.0508 0 1.8516-0.37891 2.4062-1.1406 0.55078-0.76953 0.82812-1.8828 0.82812-3.3438 0-1.457-0.27734-2.5664-0.82812-3.3281-0.55469-0.76953-1.3555-1.1562-2.4062-1.1562-1.0547 0-1.8594 0.38672-2.4219 1.1562-0.55469 0.77344-0.82812 1.8828-0.82812 3.3281 0 1.4492 0.27344 2.5586 0.82812 3.3281 0.5625 0.77344 1.3672 1.1562 2.4219 1.1562zm-3.25-9.9219c0.67578-0.88281 1.4219-1.5391 2.2344-1.9688 0.82031-0.42578 1.7656-0.64062 2.8281-0.64062 1.8945 0 3.4453 0.75 4.6562 2.25 1.207 1.5 1.8125 3.4336 1.8125 5.7969 0 2.3555-0.60547 4.2812-1.8125 5.7812-1.2109 1.5-2.7617 2.25-4.6562 2.25-1.0625 0-2.0078-0.21094-2.8281-0.625-0.8125-0.42578-1.5586-1.0859-2.2344-1.9844v2.2188h-4.8906v-21.281h4.8906z"/>
  </symbol>
  <symbol id="h" overflow="visible">
   <path d="m0.34375-15.312h4.8906l4.125 10.391 3.5-10.391h4.8906l-6.4375 16.766c-0.64844 1.6953-1.4023 2.8828-2.2656 3.5625-0.86719 0.6875-2 1.0312-3.4062 1.0312h-2.8438v-3.2188h1.5312c0.83203 0 1.4375-0.13672 1.8125-0.40625 0.38281-0.26172 0.67969-0.73047 0.89062-1.4062l0.14062-0.42188z"/>
  </symbol>
  <symbol id="g" overflow="visible">
   <path d="m0.42188-15.312h4.8906l3.8281 10.578 3.7969-10.578h4.9062l-6.0312 15.312h-5.375z"/>
  </symbol>
  <symbol id="f" overflow="visible">
   <path d="m17.75-9.3281v9.3281h-4.9219v-7.1406c0-1.3203-0.03125-2.2344-0.09375-2.7344s-0.16797-0.86719-0.3125-1.1094c-0.1875-0.3125-0.44922-0.55469-0.78125-0.73438-0.32422-0.17578-0.69531-0.26562-1.1094-0.26562-1.0234 0-1.8242 0.39844-2.4062 1.1875-0.58594 0.78125-0.875 1.8711-0.875 3.2656v7.5312h-4.8906v-15.312h4.8906v2.2344c0.73828-0.88281 1.5195-1.5391 2.3438-1.9688 0.83203-0.42578 1.75-0.64062 2.75-0.64062 1.7695 0 3.1133 0.54688 4.0312 1.6406 0.91406 1.0859 1.375 2.6562 1.375 4.7188z"/>
  </symbol>
  <symbol id="t" overflow="visible">
   <path d="m2.3594-15.312h4.8906v15.312h-4.8906zm0-5.9688h4.8906v4h-4.8906z"/>
  </symbol>
  <symbol id="s" overflow="visible">
   <path d="m2.3594-21.281h4.8906v21.281h-4.8906z"/>
  </symbol>
  <symbol id="r" overflow="visible">
   <path d="m12.422-21.281v3.2188h-2.7031c-0.6875 0-1.1719 0.125-1.4531 0.375-0.27344 0.25-0.40625 0.6875-0.40625 1.3125v1.0625h4.1875v3.5h-4.1875v11.812h-4.8906v-11.812h-2.4375v-3.5h2.4375v-1.0625c0-1.6641 0.46094-2.8984 1.3906-3.7031 0.92578-0.80078 2.3672-1.2031 4.3281-1.2031z"/>
  </symbol>
  <symbol id="e" overflow="visible">
   <path d="m9.6406-12.188c-1.0859 0-1.9141 0.39062-2.4844 1.1719-0.57422 0.78125-0.85938 1.9062-0.85938 3.375s0.28516 2.5938 0.85938 3.375c0.57031 0.77344 1.3984 1.1562 2.4844 1.1562 1.0625 0 1.875-0.38281 2.4375-1.1562 0.57031-0.78125 0.85938-1.9062 0.85938-3.375s-0.28906-2.5938-0.85938-3.375c-0.5625-0.78125-1.375-1.1719-2.4375-1.1719zm0-3.5c2.6328 0 4.6914 0.71484 6.1719 2.1406 1.4766 1.418 2.2188 3.3867 2.2188 5.9062 0 2.5117-0.74219 4.4805-2.2188 5.9062-1.4805 1.418-3.5391 2.125-6.1719 2.125-2.6484 0-4.7148-0.70703-6.2031-2.125-1.4922-1.4258-2.2344-3.3945-2.2344-5.9062 0-2.5195 0.74219-4.4883 2.2344-5.9062 1.4883-1.4258 3.5547-2.1406 6.2031-2.1406z"/>
  </symbol>
  <symbol id="q" overflow="visible">
   <path d="m16.547-12.766c0.61328-0.94531 1.3477-1.6719 2.2031-2.1719 0.85156-0.5 1.7891-0.75 2.8125-0.75 1.7578 0 3.0977 0.54688 4.0156 1.6406 0.92578 1.0859 1.3906 2.6562 1.3906 4.7188v9.3281h-4.9219v-7.9844-0.35938c0.007813-0.13281 0.015625-0.32031 0.015625-0.5625 0-1.082-0.16406-1.8633-0.48438-2.3438-0.3125-0.48828-0.82422-0.73438-1.5312-0.73438-0.92969 0-1.6484 0.38672-2.1562 1.1562-0.51172 0.76172-0.77344 1.8672-0.78125 3.3125v7.5156h-4.9219v-7.9844c0-1.6953-0.14844-2.7852-0.4375-3.2656-0.29297-0.48828-0.8125-0.73438-1.5625-0.73438-0.9375 0-1.6641 0.38672-2.1719 1.1562-0.51172 0.76172-0.76562 1.8594-0.76562 3.2969v7.5312h-4.9219v-15.312h4.9219v2.2344c0.60156-0.86328 1.2891-1.5156 2.0625-1.9531 0.78125-0.4375 1.6406-0.65625 2.5781-0.65625 1.0625 0 2 0.25781 2.8125 0.76562 0.8125 0.51172 1.4258 1.2305 1.8438 2.1562z"/>
  </symbol>
  <symbol id="p" overflow="visible">
   <path d="m17.75-9.3281v9.3281h-4.9219v-7.1094c0-1.3438-0.03125-2.2656-0.09375-2.7656s-0.16797-0.86719-0.3125-1.1094c-0.1875-0.3125-0.44922-0.55469-0.78125-0.73438-0.32422-0.17578-0.69531-0.26562-1.1094-0.26562-1.0234 0-1.8242 0.39844-2.4062 1.1875-0.58594 0.78125-0.875 1.8711-0.875 3.2656v7.5312h-4.8906v-21.281h4.8906v8.2031c0.73828-0.88281 1.5195-1.5391 2.3438-1.9688 0.83203-0.42578 1.75-0.64062 2.75-0.64062 1.7695 0 3.1133 0.54688 4.0312 1.6406 0.91406 1.0859 1.375 2.6562 1.375 4.7188z"/>
  </symbol>
  <symbol id="o" overflow="visible">
   <path d="m2.5781-20.406h5.875l7.4219 14v-14h4.9844v20.406h-5.875l-7.4219-14v14h-4.9844z"/>
  </symbol>
  <symbol id="n" overflow="visible">
   <path d="m2.1875-5.9688v-9.3438h4.9219v1.5312c0 0.83594-0.007813 1.875-0.015625 3.125-0.011719 1.25-0.015625 2.0859-0.015625 2.5 0 1.2422 0.03125 2.1328 0.09375 2.6719 0.070313 0.54297 0.17969 0.93359 0.32812 1.1719 0.20703 0.32422 0.47266 0.57422 0.79688 0.75 0.32031 0.16797 0.69141 0.25 1.1094 0.25 1.0195 0 1.8203-0.39062 2.4062-1.1719 0.58203-0.78125 0.875-1.8672 0.875-3.2656v-7.5625h4.8906v15.312h-4.8906v-2.2188c-0.74219 0.89844-1.5234 1.5586-2.3438 1.9844-0.82422 0.41406-1.7344 0.625-2.7344 0.625-1.7617 0-3.1055-0.53906-4.0312-1.625-0.92969-1.082-1.3906-2.6602-1.3906-4.7344z"/>
  </symbol>
  <symbol id="m" overflow="visible">
   <path d="m2.5781-20.406h8.7344c2.5938 0 4.582 0.57812 5.9688 1.7344 1.3945 1.1484 2.0938 2.7891 2.0938 4.9219 0 2.1367-0.69922 3.7812-2.0938 4.9375-1.3867 1.1562-3.375 1.7344-5.9688 1.7344h-3.4844v7.0781h-5.25zm5.25 3.8125v5.7031h2.9219c1.0195 0 1.8047-0.25 2.3594-0.75 0.5625-0.5 0.84375-1.2031 0.84375-2.1094 0-0.91406-0.28125-1.6172-0.84375-2.1094-0.55469-0.48828-1.3398-0.73438-2.3594-0.73438z"/>
  </symbol>
  <symbol id="l" overflow="visible">
   <path d="m2.3594-15.312h4.8906v15.031c0 2.0508-0.49609 3.6172-1.4844 4.7031-0.98047 1.082-2.4062 1.625-4.2812 1.625h-2.4219v-3.2188h0.85938c0.92578 0 1.5625-0.21094 1.9062-0.625 0.35156-0.41797 0.53125-1.2461 0.53125-2.4844zm0-5.9688h4.8906v4h-4.8906z"/>
  </symbol>
  <symbol id="k" overflow="visible">
   <path d="m14.719-14.828v3.9844c-0.65625-0.45703-1.3242-0.79688-2-1.0156-0.66797-0.21875-1.3594-0.32812-2.0781-0.32812-1.3672 0-2.4336 0.40234-3.2031 1.2031-0.76172 0.79297-1.1406 1.9062-1.1406 3.3438 0 1.4297 0.37891 2.543 1.1406 3.3438 0.76953 0.79297 1.8359 1.1875 3.2031 1.1875 0.75781 0 1.4844-0.10938 2.1719-0.32812 0.6875-0.22656 1.3203-0.56641 1.9062-1.0156v4c-0.76172 0.28125-1.5391 0.48828-2.3281 0.625-0.78125 0.14453-1.5742 0.21875-2.375 0.21875-2.7617 0-4.9219-0.70703-6.4844-2.125-1.5547-1.4141-2.3281-3.3828-2.3281-5.9062 0-2.5312 0.77344-4.5039 2.3281-5.9219 1.5625-1.4141 3.7227-2.125 6.4844-2.125 0.80078 0 1.5938 0.074219 2.375 0.21875 0.78125 0.13672 1.5547 0.35156 2.3281 0.64062z"/>
  </symbol>
 </defs>
 <g>
  <path d="m587.62 166.84c-4.7812-7.207-10.227-13.82-16.195-19.82-0.35938-1.1328-0.81641-2.2578-1.3789-3.3828 1.3789-1.3477 2.5859-3.1133 3.543-5.4102 0.92969-2.2305-0.66797-4.6641-2.3984-5.8789-1.5859-1.1211-3.1992-2.207-4.8008-3.293 1.6133 0.66797 3.2383 1.3281 4.8906 1.9414 4.832 1.8086 7.582-4.0312 5.957-7.7617-0.09375-0.23438-0.21875-0.45312-0.32031-0.68359 3.4141-0.44141 6.4961-4.0078 4.1602-7.8164-15.938-25.93-41.578-43.223-71.766-47.656-3.5234-0.51562-7.0117 2.168-6.7031 5.543-8.1641-1.8047-16.375-3.2148-24.367-4.4414-4.1094-0.63281-8.707 3.4883-5.9297 7.707 2.5156 3.8086 5.1758 7.5 7.9141 11.121-11.402-3.6641-23.023-6.7383-34.855-9.1914-4.2578-0.88672-8.2539 3.5234-5.8242 7.5898 3.1602 5.2969 6.6523 10.367 10.359 15.254-4.6797-0.41406-9.3633-0.73438-14.078-0.87891-2.8906-0.09375-4.6602 2.0898-4.8984 4.4961-13.238-4.0547-26.797-7.2188-40.621-9.3086-3.9922-0.60547-8.2656 3.3164-5.6836 7.3789 6.0938 9.5703 12.848 18.672 20.156 27.273-0.12891 0.14062-0.28516 0.24609-0.41406 0.39062-2.0117 2.1953-3.2461 4.5234-3.875 6.9258-13.086-2.8633-26.57-3.9023-40.355-2.5273-2.3242 0.23438-3.9492 1.5742-4.6133 3.2891-0.50391-1.1914-0.96484-2.4141-1.4883-3.5898 3.0391-1.2656 5.1445-5.0352 3.0117-8.2109-14.914-22.152-33.039-41.688-54.527-57.613-12.215-9.0508-38.203-29.883-54.359-16.711-4.5195 3.6953-5.8203 8.1719-5.1523 12.93-13.008-6.2773-27.082-10.578-33.363-3.8906-6.0859 0.23047-10.711 3.5742-12.5 11.871-0.58984 2.7344-0.54688 5.6797-0.074219 8.7305-3.8906-1.7695-7.8164-3.5-11.754-5.1758-3.3984-1.4492-8.9766 0.10156-8.4453 4.8477 0.64844 5.7227 1.7812 11.238 3.3047 16.574-5.582-3.1367-11.172-6.2812-16.824-9.3203-3.9023-2.0938-7.9453 0.78516-8.1797 4.5039-3.6562-0.96875-7.3789-1.6797-11.199-2.0117-2.7539-0.23438-5.8125 2.7266-5.5117 5.5117 1.043 9.7148 3.1758 18.984 6.1562 27.906-1.3008-0.60938-2.5938-1.2422-3.9258-1.8086-3.4336-1.4727-8.457 0.12891-8.1641 4.6875 0.32031 4.7812 0.96484 9.457 1.8633 14.027-4.6641-1.9258-9.5078-2.4805-14.352-0.12891-13.004 6.3398-11.492 18.156-5.8672 29.695-0.46484 0.44141-0.90234 0.90625-1.3438 1.4219-1.4453 1.7422-2.0234 4.0938-0.79688 6.1562 2.6758 4.4844 5.4336 8.9219 8.1523 13.371-2.5859 0.76172-4.9062 2.2773-6.7188 4.9336-7.0742 10.293 5.9023 36.348 10.473 46.258 11.727 25.402 28.246 49.172 45.801 71.941 0.011718 0.51563 0.089843 1.0352 0.30859 1.5195 17.902 39.223 44.777 72.676 79.18 98.312 15.379 17.062 31.566 33.422 48.512 49.012 0.93359 0.95313 1.8438 1.9141 2.7734 2.8633 15.266 15.578 30.574 32.984 47.988 46.176 11.984 9.0781 27.77 12.684 39.219 0.77344 2.1211-2.2109 3.8086-4.4727 5.1758-6.7891 4.8398 1.0938 9.9023 0.60547 15.086-2.4883 2.4766-1.4727 3.0391-4.457 1.8203-6.9375-3.4844-7.0859-7.168-14.043-10.938-20.945 0.59375-0.24609 1.1914-0.52734 1.7969-0.83594 2.0117-1.0234 3.0391-3.8086 2.4141-5.9258-1.7578-5.8906-3.8359-11.625-6.1445-17.238 3.9805 3.6953 8.1016 7.1406 12.477 10.102 10.516 7.125 22.625 10.27 32.555 0.83984 1.6953-1.6133 2.2188-4.7773 0.875-6.7773-0.4375-0.63672-0.87891-1.2695-1.3164-1.9141 2.2109 0.46875 4.4922 0.81641 6.8594 1.0078 4.0977 0.33203 7.3516-5.1641 4.9062-8.5625-6.8828-9.543-13.898-18.984-20.984-28.387 13.898 7.1914 27.242 9.0273 33.953-4.8672 1.3086-2.7227 2.2227-5.4805 2.8555-8.2695 4.1758-0.50391 8.1211-2.0391 11.574-5.1055 13.664-12.113 9.0898-28.125 0.94531-41.836 0.023438-0.027344 0.042969-0.050781 0.066407-0.074219 1.1523-1.5625 0.95312-4.1211 0-5.7109-2.3906-3.9609-4.8555-7.875-7.2812-11.805 11.547 8.5664 24.012 13.484 36.137 9.5664 8.9102-2.8711 10.961-10.07 10.289-17.93 1.8828 0.73438 3.7695 1.4727 5.6797 2.1602 3.6562 1.332 8.1523-2.918 6.6523-6.6523-3.1758-7.9688-6.7383-15.754-10.641-23.34 5.2852 0.32422 10.645-0.45312 16.023-2.8047 2.7656-1.2109 3.2461-5.1406 1.9648-7.4805-4.2109-7.6992-8.8125-15.152-13.68-22.41 7.582 3.207 15.281 3.6719 20.273-3.8477 1.9414-2.9219 2.4883-6.0273 2.0898-9.1797 4.082 2.3594 9.6562-1.6445 8.1641-6.3438-1.8359-5.8281-4.1758-11.324-6.8984-16.555 8.9258 1.4844 16.43-0.078125 20.031-7.3867 3.8086-7.7344-0.63672-16.219-5.9805-23.43 2.0234-0.33984 4.0547-0.82812 6.1211-1.6172 4.0898-1.5508 5.2852-5.9414 2.457-9.3203-0.58203-0.69922-1.2031-1.3477-1.7852-2.0312 0.55859-1.625 0.49219-3.4883-0.35156-4.8477-3.1523-5.0898-6.6211-9.9297-10.305-14.543-1.0586-1.9102-2.2383-3.7969-3.5-5.6406 7.6055 3.4961 15.613 6.2383 24.152 7.9336 4.418 0.89453 9.2148-3.8359 6.3125-8.2031zm-134.54 183.28c-0.28125-0.13281-0.55469-0.29688-0.82422-0.4375-7.8281-11.168-16.23-21.918-25.055-32.363 5.3867 4.5117 10.824 8.9648 16.301 13.367 3.3281 6.4102 6.5117 12.895 9.5781 19.434zm-184.79-0.51563c-11.426-12.762-22.668-25.688-33.762-38.734 22.77 21.043 44.867 42.824 66.227 65.324 12.762 13.461 25.277 27.172 37.516 41.109 11.969 13.641 25.523 27.5 36.141 42.605-7.668-6.2539-14.684-14.777-18.82-18.844-10.242-10.051-20.367-20.215-30.387-30.504-19.406-19.906-38.375-40.242-56.914-60.957zm20.488 48.195c-15.422-16.621-30.457-33.594-45.012-50.977-1.8711-2.2344-3.6797-4.5117-5.5391-6.7578 9.8281 10.488 19.465 21.145 28.895 31.988 7.3672 8.4688 14.562 17.07 21.656 25.746zm-91.715-132.31c-8.3984-10.504-16.703-21.094-24.879-31.773 25.316 21.582 50.266 43.625 74.266 66.652 35.312 33.887 68.57 70.027 97.652 109.21-45.477-51.52-94.707-99.609-147.04-144.09zm12.504 32.148c-1.4375-1.4062-2.8438-2.832-4.2852-4.2344-4.3906-4.25-8.8086-8.4961-13.242-12.707-4.6016-6.2891-9.1797-12.602-13.676-18.969 2.2383 1.8555 4.4922 3.6953 6.707 5.5703 8.0664 10.191 16.227 20.316 24.496 30.34zm141.29-113.37c3.3828 4.2227 6.7773 8.457 10.125 12.719-3.7617-3.875-7.5938-7.6875-11.473-11.453 0.57812-0.25 1.0391-0.71094 1.3477-1.2656zm48.227 75.41c-19.453-19.602-40.383-37.684-62.652-54.113-29.824-25.133-61.137-48.422-93.637-69.898-7.7227-9.5039-15.055-19.305-21.363-29.805 4.4805 2.4023 8.9258 4.8594 13.332 7.3789 7.1289 8.3086 14.762 16.18 22.953 23.477 20.805 18.531 44.375 33.195 69.898 44.027 26.34 23.863 50.289 50.324 71.469 78.934zm-78.281-46.184c-1.8945-2.9844-3.7734-5.9805-5.6328-8.9805 2.1211 1.457 4.2188 2.9531 6.3164 4.4336-0.77344 1.3438-1.0703 2.9844-0.68359 4.5469zm-28.926-24.867c1.0977 1.7969 2.2188 3.6055 3.3203 5.4141-3.2773-2.7422-6.5625-5.5-9.8438-8.2422-5.0664-5.9258-10.152-11.828-15.211-17.758 7.1797 5.1797 14.301 10.426 21.34 15.797-0.58594 1.4766-0.57812 3.1875 0.39453 4.7891zm-57.758-45.422c1.8633 2.3125 3.7852 4.582 5.6914 6.8594-4.5039-3.1758-9.0664-6.2539-13.699-9.2109-0.074219-1.0039-0.125-2.0039-0.15625-3.0078 2.7305 1.7578 5.4414 3.5664 8.1641 5.3594zm-5.5664 63.754c6.0273 7.8516 12.141 15.625 18.328 23.348-16.738-15.113-33.918-29.746-51.492-43.902-3.2539-5.293-6.3906-10.668-9.2891-16.207-1.1016-2.1016-2.1094-4.25-3.1523-6.3789 13.609 12.023 26.41 25.094 38.859 36.734 2.2773 2.1172 4.5 4.2773 6.7461 6.4062zm26.633 10.457c-5.5938-8.7812-10.773-17.797-15.18-27.035 12.785 15.91 25.762 31.664 38.965 47.219 9.0234 10.617 18.168 21.117 27.383 31.562-16.676-17.621-33.758-34.852-51.168-51.746zm46.133 82.723c-16.945-14.297-33.777-29.074-49.656-44.773-7.9141-9.1211-15.77-18.297-23.559-27.523 22.23 19.609 43.754 40.027 64.484 61.219 2.8555 3.7305 5.7812 7.4141 8.7305 11.078zm-117.18-108.29c0.47656 0.60938 0.98047 1.2109 1.4609 1.8203 16.727 27.137 38.68 51.656 62.043 74.078 2.5742 2.9336 5.1367 5.8789 7.7109 8.8047-23.773-23.727-48.16-46.855-73.199-69.238-1.1406-1.0195-2.2773-2.0703-3.4258-3.1211-8.8828-11.258-17.125-23.102-23.445-35.766 9.043 6.8086 17.988 13.754 26.836 20.809 0.66406 0.87109 1.332 1.7461 2.0195 2.6133zm-19.207 12.238c4.0195 5.4141 8.2227 10.711 12.523 15.902 4.793 5.8125 9.6875 11.547 14.617 17.246-14.48-12.641-29.238-24.941-44.359-36.559-0.18359-0.14453-0.40234-0.30078-0.59766-0.44922-3.6953-5.0586-7.3711-10.121-11.027-15.211-1.2305-1.707-2.8125-3.5391-4.4023-5.4375 8.9961 4.1953 21.355 13.996 33.246 24.508zm154.46 126.21c12.852 10.68 25.816 21.242 38.863 31.691 11.535 13.883 22.812 27.984 33.723 42.363-11.43-11.199-22.785-22.477-34.008-33.902-13-13.234-25.855-26.629-38.578-40.152zm-2.3086-33.332c9.625 10.535 19.086 21.211 28.438 31.98-9.7773-10.371-19.191-21.121-28.438-31.98zm34.344 21.777c20.289 21.645 40.734 43.586 64.496 61.492 1.2148 3 2.3516 6.0352 3.4375 9.1016-6.8945-3.8359-13.383-8.1602-18.711-11.793-15.961-19.977-32.387-39.559-49.223-58.801zm-49.742-72.145c-22.113-25.457-43.656-51.418-64.586-77.855-2.4258-3.0586-4.9062-6.1445-7.3867-9.25 1.2812 1.1406 2.6133 2.2578 3.9023 3.4062 26.207 23.312 51.469 47.684 75.719 73.031 35.086 36.676 72.004 75.773 95.918 121.3-38.125-32.547-71.156-73.332-103.57-110.63zm81.441 50.094c-12.938-13.629-24.645-28.281-35.637-43.484 14.746 13.91 29.613 27.703 43.508 42.531 7.2188 7.6953 15.113 15.715 22.902 24.074 3.7461 4.3242 7.4414 8.6953 11.078 13.121-15.246-10.473-29.129-22.824-41.852-36.242zm-26.109-122.09c1.3203 0.054687 2.625 0.56641 3.8906 1.5898 1.3789 0.8125 2.7344 1.668 4.043 2.582 3.5664 2.3242 7.0781 4.7617 10.574 7.1953 2.2305 1.5586 4.4336 3.168 6.6367 4.7617 1.2812 9.7383 7.1562 20.371 11.934 28.777 0.58203 1.7305 1.1523 3.4648 1.7578 5.1797-12.609-16.949-25.574-33.648-38.836-50.086zm181.9 43.508c-1.8125-2.3398-3.7344-4.6133-5.707-6.8438 4.7109 0.92969 9.3516 1.2031 13.652 0.49219 2.332 6.8125-2.5898 7.1562-7.9453 6.3516zm10.559-67.715c-9.7617-5.9023-18.793-13.082-27.422-20.805 2.0664 0.92969 4.1172 1.8867 6.1562 2.8906 0.5 0.32031 0.96484 0.68359 1.4609 1.0039 4.832 3.1484 12.375 8.1797 19.98 11.184 4.5898 3.543 4.4414 5.918-0.17578 5.7266zm-23.215 41.715c-1.3477 1.0234-3.6836 1.3203-6.5352 1.0742-1.9922-0.17188-4.0391-0.50391-6.0977-0.96484-3.7695-3.2148-7.6289-6.3516-11.559-9.3984-14.926-11.594-31.09-24.625-48.938-31.367-0.36328-0.35156-0.72266-0.72266-1.082-1.082 15.914 6.3008 31.316 13.789 46.055 22.641 9.7109 5.8516 19.121 12.23 28.156 19.098zm-111.62-23.273c2.6758 3.1523 5.4648 6.1836 8.3594 9.0938-5.1445-2.6094-10.27-4.7891-15.082-6.2031 1.4023-2.3242 3.9219-2.9688 6.7227-2.8906zm14.336 29.957c-5.5234-4.1172-10.887-8.4062-16.152-12.828 6.4609 3.125 12.789 6.5508 18.945 10.219 8.3203 4.9492 16.324 10.383 24.051 16.191-0.023437-0.011719-0.054687-0.015625-0.078125-0.027343-7.9648-2.9297-15.605-6.5977-23-10.734-1.2891-0.96875-2.5547-1.918-3.7656-2.8203zm53.336 21.461c-3.7305-3.3945-7.5664-6.6992-11.496-9.8906 7.2617 3.1602 14.766 5.7734 22.43 7.8281 0.48047 0.42578 0.94141 0.85547 1.418 1.2773-0.25391 0.10156-0.46875 0.21875-0.73828 0.3125-3.0938 1.1406-7.1836 1.1211-11.613 0.47266zm-76.727-61.062c-5.4648 1.3984-9.8555 4.5039-11.098 10.242-3.4492-3.332-6.8164-6.7656-10.137-10.227l1.4766-5.2461 5.3867 0.49219c2.3594-0.035156 5.4492 1.5664 7.6445 2.2969 2.25 0.75 4.4844 1.6055 6.7266 2.4414zm98.66 68.348c0.84375 0.68359 1.707 1.3438 2.5547 2.0273 0.48047 0.55859 0.96875 1.1211 1.4492 1.6758-3.3281-0.26172-6.7188-0.84375-9.9297-1.5273 2.1445-0.48438 4.1406-1.1953 5.9258-2.1758zm-102.86-22.398c4.6602 3.6562 9.2461 7.4023 13.789 11.207 3.707 5.5664 7.6055 11.008 11.711 16.289 14.469 18.633 31.414 35.145 50.328 49.223 3.875 2.8906 7.9961 5.9648 12.293 8.9023 5.5664 6.9062 10.656 14.234 14.352 22.148-41.66-21.234-76.973-55.02-98.926-96.383-1.2695-3.7539-2.457-7.5508-3.5469-11.387zm94.785 77.934c-3.8086-4.4922-7.7461-8.8477-11.648-13.07-17.375-18.859-36.004-36.566-55.688-53.008-0.27344-0.38672-0.56641-0.76562-0.82812-1.1523-0.39844-0.57031-0.78906-1.1641-1.1797-1.7344 2.957 1.7305 5.9688 3.3672 9.0117 4.957 24.551 17.969 45.781 40.113 62.602 65.477-0.76953-0.48438-1.5273-0.96875-2.2695-1.4688zm39.164-46.328c-0.82812-0.85547-1.6562-1.6914-2.457-2.5078 0.73438-0.82422 1.3906-1.7734 2.0117-2.7891 1.793 2.6875 3.4648 5.4727 5.0195 8.3438-1.5391-1.0078-3.0742-2.0117-4.5742-3.0469zm24.328-122.41c-11.105-5.8789-21.09-13.383-29.785-22.301 11.578 5.1445 21.934 12.211 29.785 22.301zm-71.391-33.93c7.3359 1.3008 14.734 2.8281 21.965 4.7891 6.5703 8.9102 14.094 16.852 22.484 23.738-10.91-5.6836-22.109-10.746-33.555-15.191-3.8242-4.2812-7.4531-8.7227-10.895-13.336zm9.6953 27.223c-0.33203 0.035156-0.64844 0.042968-0.98438 0.078125-1.0195 0.10547-1.9258 0.46875-2.7383 0.98047-4.6719-1.3164-9.3867-2.4766-14.125-3.5-4.6367-2.1719-9.3359-4.2383-14.129-6.0977-1.4961-0.58203-2.8555-0.37891-3.9688 0.25781-2.3086-2.7773-4.4922-5.668-6.6016-8.6172 12.898 3.2148 25.508 7.168 37.812 11.859 1.5586 1.6953 3.1172 3.4023 4.7344 5.0391zm-34.223 8.9648c-4.5547-2.0391-9.1562-3.9766-13.809-5.7734 3.0977 0.27344 6.1836 0.60547 9.2695 1.0039 1.4805 1.6211 2.9922 3.207 4.5391 4.7695zm-64.059-9.8203c14.309 2.8125 28.262 6.7383 41.797 11.688 1.9102 2.0117 3.8203 4.0078 5.7461 5.9883-3.207 0.41016-6.332 1.1875-9.3477 2.3867-1.2148-0.20703-2.4141-0.42578-3.625-0.60938-6.668-1.7148-14.105-2.9805-20.551-1.4727-4.9531-5.7461-9.6289-11.754-14.02-17.98zm12.562 31.258c0.90625 0.97266 1.8477 1.9219 2.7734 2.8789-1.1133-0.35938-2.2188-0.73438-3.332-1.0703 0.13281-0.66016 0.31641-1.2695 0.55859-1.8086zm-58.656 11.453c-0.074219 1.4102 0.39062 2.8789 1.3906 3.7812 5.9297 5.4531 11.93 10.938 18.027 16.324 2.5078 3.9648 5.957 7.8359 9.75 11.496-0.023438 0.085937-0.054688 0.16406-0.078126 0.24609-9.7227-7.6602-22.742-17.07-32.621-15.203-3.7578-4.5977-7.5-9.2188-11.316-13.781 1.3984-1.7031 1.8984-4.043 0.39844-6.1211-1.5391-2.1211-3.1523-4.1836-4.7422-6.2539 4.8789 3.0586 9.7773 6.0859 14.688 9.1016 1.375 0.83594 3.0156 0.88672 4.5039 0.41016zm-96.125-89.992c3.0391-2.1719 7.9297-1.293 13.484 1.1641 0.15234 0.63281 0.46094 1.2773 0.95312 1.9102 18.625 24.203 40.281 45.188 64.98 62.809 0.74609 1.3203 1.457 2.6602 2.1602 4.0078-13.957-8.7188-27.676-17.773-40.582-27.828-3.5742-3.1016-7.2461-6.082-10.988-8.9805-2.7266-2.3477-5.4023-4.7695-8.0352-7.2461-5.7227-6.1328-11.496-12.227-17.32-18.273-2.0391-2.1094-4.4453-2.1016-6.2891-0.99219-0.76562-2.8828-0.34766-5.1562 1.6367-6.5703zm-13.543 30.699c28.086 20.098 55.367 41.797 76.402 69.004-24.535-20.59-50.859-39.066-78.695-55.059-5.4375-6.4336-10.562-13.148-15.281-20.172-1.875-2.793-5.6719-6.5508-6.4336-9.7656 8.668 2.9883 16.918 10.918 24.008 15.992zm-18.648 93.949c-12.285-16.582-24.02-33.555-35.023-51.012 0.26172 0.11719 0.42969 0.19531 0.46094 0.20703 3.0352 1.3047 6.0078 2.7383 8.9648 4.2266 4.5938 6.9102 9.5664 13.641 14.699 20.301 1.2812 1.668 2.5977 3.3281 3.8906 4.9883 1.7891 7.2578 4.1719 14.352 7.0078 21.289zm-9.4648-51.621c-1.3438-1.2109-2.7031-2.418-4.0781-3.6445 1.5781 0.98047 3.1367 1.9883 4.7109 2.9727-0.23438 0.20703-0.44141 0.43359-0.63281 0.67188zm0.54297-41.992c-1.2773-0.64844-2.5664-1.2891-3.8477-1.9258-1.0039-2.4961-1.8125-4.9766-2.2578-7.2031 1.7305 3.1133 3.8828 6.2109 6.1055 9.1289zm-14.375 5.3984c3.9023 8.1719 9.25 16.121 13.547 22.34-6.9141-4.2578-13.883-8.4219-20.895-12.504-2.0625-5.0391-3.6953-10.227-4.8984-15.562 4.1016 1.8555 8.1953 3.7617 12.246 5.7266zm-26.012 35.105c5.9961 9.8047 12.207 19.48 18.641 28.996-6.8086-6.2383-13.816-12.305-21.086-17.887-1.2578-3.9023-1.5742-8.0625 2.4453-11.109zm-14.348-24.613c2.582 4.6992 5.2344 9.3477 7.9414 13.965-5.5039 2.3867-8.0234 7.2812-8.3828 12.996-0.63281-0.41406-1.2539-0.83594-1.8867-1.2383-4.0781-9.3867-7.168-19.188-8.8984-29.469 3.9023 0.85938 7.6367 2.1289 11.227 3.7461zm-10.836 33.238c3.2383 7.0664 6.957 13.926 11.043 20.613-2.6992-2.0273-5.3711-4.0781-8.0859-6.0742-1.9023-1.3984-3.9609-3.0703-6.125-4.7812-1.3203-4.3281-2.375-8.7539-3.1211-13.293 2.1211 1.1094 4.2109 2.2891 6.2891 3.5352zm-18.996 11.758c1.0742-0.30078 3.9219 1.832 6.4062 3.8906 2.418 7.2695 5.4648 14.293 9.0273 21.078-1.9883-1.4883-4-2.9219-6.043-4.2734-5.3828-3.5391-11.855-6.2109-17.836-5.7188-0.10547-0.17969-0.21094-0.35156-0.32031-0.53906zm-8.7812 55.051c0.39062-3.2891 1.4727-4.918 2.9453-5.5039 3.0977 4.9883 6.2773 9.9219 9.4414 14.875-4.125-3.1523-8.2422-6.2773-12.387-9.3711zm18.707 45.152c-6.1953-9.6328-11.414-19.746-14.707-30.633 8.0039 6.0547 15.934 12.188 23.793 18.402 3.3828 5.0508 6.7422 10.113 10.188 15.113-4.8438-2.6641-10.09-4.3008-16.27-4.1055-1.2266 0.035156-2.2422 0.51172-3.0039 1.2227zm106.79 132.95c7.7734 8.3672 15.254 16.992 22.398 25.898-7.5078-8.5898-14.973-17.219-22.398-25.898zm75.73 85.332c-2.3359-2.5195-4.6016-5.0898-6.9219-7.6172-29.211-48.938-66.801-92.18-110.95-128.03-11.57-14.133-23.066-28.348-34.383-42.688-2.2969-2.9062-4.6367-5.8242-6.9961-8.7539-4.1328-7.2422-8.1211-14.582-12.02-21.973 10.703 3.6055 20.156 13.938 28.23 22.152 21.719 29.844 44.609 58.832 68.75 86.789 25.883 29.988 53.117 58.812 81.598 86.363 2.1172 2.0508 4.2383 4.0938 6.3633 6.1562 8.0859 11.406 15.98 22.961 23.676 34.652-15.312-0.027344-27.734-16.645-37.344-27.051zm32.02 35.875c4.6328 0.8125 9.4297 0.63281 14.379-0.92969 2.7227-0.85547 4.4531-4.1953 2.7656-6.793-1.5898-2.4414-3.2266-4.8477-4.8164-7.2734 2.1914 1.9102 4.3672 3.8477 6.6016 5.6992 2.6445 2.1836 5.3945 4.25 8.2383 5.9688-6.2617 10.84-17.379 9.4805-27.168 3.3281zm30.492-12.953c-13.453-7.7734-28.707-25.594-34.895-31.406-3.4883-3.2812-6.9102-6.6289-10.367-9.9531-9.4297-13.121-19.102-26.051-29.055-38.781 6.7422 6.957 13.535 13.859 20.383 20.715 12.539 12.555 24.914 27.008 39.289 37.492 4.0312 2.9531 8.1016 5.168 12.281 6.2773 2.0352 5.0273 3.0938 10.273 2.3633 15.656zm-29.434-82.211c3.3281 3.4102 6.6523 6.8164 9.9727 10.227 1.8555 1.8945 3.7031 3.8633 5.543 5.8672 5.4805 9.3672 10.32 19.023 14.34 28.996-9.2969-15.465-19.27-30.496-29.855-45.09zm26.078 10.789c-2-2.0508-4.0039-4.0977-5.9961-6.1562-8.2227-12.707-17.5-24.801-27.277-36.52-0.51953-0.61719-1.0547-1.2305-1.5664-1.8555 4.418 4.5039 8.7969 9.0273 13.242 13.496 14.75 14.828 29.457 29.871 44.918 43.973 5.1445 4.6875 10.398 8.9258 16.012 12.363 2.4688 3.5508 4.9297 7.1289 7.3594 10.711-14.766 4.0781-39.898-29.062-46.691-36.012zm51.105 18.949c-1.3555-0.60938-2.6836-1.2656-3.9883-1.9883-10.781-15.418-21.945-30.559-33.426-45.457 1.1797 0.99609 2.418 2.043 3.7227 3.1484 11.445 14.594 22.695 29.344 33.691 44.297zm-1.1172-44.418c-0.39844-1.3203-0.80469-2.625-1.2266-3.9375 3.5391 2.3477 7.2969 4.6641 11.156 6.6914-3.2344-0.55078-6.5781-1.5117-9.9297-2.7539zm-8.2383-22.871c-5.4102-12.887-11.883-25.285-19.164-37.258 12.422 10.742 25.832 20.055 40.801 26.527 2.9336 5.1797 5.4922 10.473 7.5078 15.91 1.6445 4.4688 2.9023 9.1602 3.4609 13.914-11.305-3.1836-23.031-11.887-32.605-19.094zm43.82 13.406c-0.41406-1.9219-0.91406-3.8398-1.5234-5.7617 1.6055-1.3945 2.3633-3.6797 0.91797-6.1133-1.2617-2.1211-2.5938-4.1875-3.8789-6.2773 2.5039 0.27344 4.3906-1.0625 5.3594-2.9922 0.55859-0.066406 1.1211-0.16406 1.6641-0.28125 1.5078 7.0938 1.0234 14.316-2.5391 21.426zm-0.26953-67.656c-12.141-11.879-23.109-24.961-32.633-39.027-2.082-3.0859-4.0664-6.2227-6.0078-9.3789 0.60547 0.66016 1.1992 1.3398 1.8086 1.9883 21.785 23.27 47.906 41.727 76.766 54.828 5.1133 27.441-30.828 0.5-39.934-8.4102zm47.449-25.98c-11.43-19.809-25.324-37.992-41.223-54.219 3.9648 1.5586 7.9805 2.8516 12.023 3.7344 3.5742 3.168 7.1836 6.2812 10.887 9.3125 11.211 13.055 21.133 27.176 29.793 42.141-3.6562 0.50391-7.5234 0.097657-11.48-0.96875zm19.453-29.984c-5.332 3.7539-25.418-15.094-29.238-18.188-0.30859-0.25391-0.59375-0.51953-0.90234-0.76563-0.13281-0.15625-0.28516-0.30859-0.41406-0.46484 3.0586-0.35156 6.1133-1.0195 9.1602-2.0312 2.4375-0.039063 4.8281-0.26172 7.125-0.74609 1.9531 1.4062 3.9414 2.7656 5.9258 4.1445 5.8984 6.7344 12.215 15.328 8.3438 18.051z"/>

 </g>
</svg>
