<?xml version="1.0" standalone="no"?>
<!DOCTYPE svg PUBLIC "-//W3C//DTD SVG 20010904//EN"
 "http://www.w3.org/TR/2001/REC-SVG-20010904/DTD/svg10.dtd">
<svg version="1.0" xmlns="http://www.w3.org/2000/svg"
 width="512.000000pt" height="512.000000pt" viewBox="0 0 512.000000 512.000000"
 preserveAspectRatio="xMidYMid meet">

<g transform="translate(0.000000,512.000000) scale(0.100000,-0.100000)"
fill="red" stroke="black">
<path d="M1605 5114 c-538 -23 -1117 -72 -1245 -106 -95 -25 -214 -180 -276
-361 -102 -297 -112 -745 -23 -983 32 -86 77 -123 210 -171 201 -73 387 -96
588 -74 57 6 106 9 108 7 9 -8 24 -224 53 -771 98 -1823 142 -2253 254 -2473
31 -61 103 -127 152 -142 68 -19 304 -29 834 -36 690 -9 1559 14 2280 61 l225
15 39 42 c148 163 247 355 291 568 31 147 28 441 -4 473 -6 6 -153 5 -361 -3
-194 -6 -354 -10 -356 -8 -9 9 -67 443 -103 773 -41 373 -81 869 -96 1190 -21
459 -41 701 -76 935 -64 422 -166 691 -328 863 -97 102 -104 106 -238 123
-145 18 -528 50 -763 64 -174 11 -1013 21 -1165 14z m1065 -55 c489 -22 946
-67 989 -98 77 -55 160 -166 226 -303 136 -279 203 -679 240 -1428 33 -670 90
-1284 174 -1887 l27 -192 -80 -5 c-45 -3 -603 -22 -1241 -42 -638 -19 -1165
-37 -1171 -39 -7 -2 -13 -67 -17 -182 -9 -252 -51 -514 -103 -639 -27 -65 -74
-132 -109 -154 -20 -12 -50 -20 -76 -20 -204 0 -277 155 -338 712 -37 332 -63
708 -121 1763 -59 1066 -90 1357 -185 1750 -82 341 -196 582 -316 671 l-30 22
38 6 c78 12 335 36 558 52 468 32 1011 37 1535 13z m-2164 -105 c130 -62 264
-340 349 -724 37 -166 82 -446 74 -454 -3 -3 -83 1 -179 10 l-174 15 -54 -61
c-101 -114 -233 -189 -306 -176 -77 15 -132 120 -156 297 -17 121 -14 385 5
512 34 232 114 428 214 528 79 78 142 93 227 53z m269 -1215 c83 -7 154 -15
159 -20 12 -11 35 -232 25 -243 -4 -5 -89 -11 -187 -14 -189 -5 -262 3 -389
40 l-73 21 62 36 c34 20 98 71 142 113 45 43 88 77 96 78 8 0 83 -5 165 -11z
m4291 -2665 c3 -30 4 -119 1 -197 -10 -280 -97 -498 -282 -709 l-41 -46 -269
-16 c-602 -37 -945 -48 -1656 -53 -404 -3 -833 -2 -953 2 l-217 7 19 22 c107
118 173 380 191 764 5 89 11 166 15 169 4 4 712 31 1574 59 862 28 1577 52
1589 53 19 1 22 -6 29 -55z"/>
<path d="M2794 4792 c-68 -49 -134 -154 -194 -307 -18 -44 -33 -81 -34 -83 -2
-1 -20 26 -41 60 -51 83 -184 215 -263 261 -164 96 -299 102 -375 17 -64 -69
-72 -168 -26 -315 62 -204 205 -419 379 -571 129 -112 355 -243 389 -224 21
11 150 160 222 257 32 42 81 118 108 168 149 268 165 487 49 668 -62 97 -141
122 -214 69z m142 -54 c18 -16 47 -62 65 -101 31 -67 34 -79 34 -172 0 -76 -6
-118 -23 -175 -30 -96 -115 -259 -189 -362 -81 -113 -201 -248 -220 -248 -27
0 -170 81 -257 147 -206 155 -366 377 -440 611 -45 142 -31 250 36 292 54 34
154 25 249 -22 128 -64 250 -184 330 -325 53 -94 61 -92 104 32 59 171 147
319 207 348 40 20 63 14 104 -25z"/>
<path d="M2730 3309 c-299 -19 -746 -71 -1050 -122 -120 -20 -135 -25 -135
-42 0 -25 -7 -25 240 13 856 134 1494 155 2008 66 33 -6 37 -4 37 14 0 11 -8
23 -17 26 -37 11 -212 36 -328 46 -136 11 -567 11 -755 -1z"/>
<path d="M2810 2770 c-345 -22 -922 -90 -1177 -141 -50 -10 -68 -28 -44 -43 5
-4 78 5 163 19 779 125 1534 163 1948 98 137 -22 175 -22 175 -3 0 54 -636 96
-1065 70z"/>
<path d="M2835 2200 c-414 -28 -1160 -124 -1192 -154 -7 -6 -9 -17 -4 -24 6
-10 37 -8 157 12 478 81 1065 136 1439 136 224 0 444 -19 658 -56 33 -6 37 -4
37 15 0 14 -8 22 -25 26 -14 3 -37 8 -52 11 -165 35 -724 53 -1018 34z"/>
<path d="M2880 1643 c-435 -30 -723 -62 -1100 -124 -132 -22 -161 -33 -138
-54 10 -10 49 -6 178 15 752 127 1510 162 1960 93 143 -22 145 -22 145 2 0 17
-13 22 -100 36 -174 29 -335 39 -622 37 -153 -1 -298 -3 -323 -5z"/>
</g>
</svg>
